<?xml version="1.0" encoding="UTF-8" standalone="no"?>
<!DOCTYPE svg PUBLIC "-//W3C//DTD SVG 1.1//EN" "http://www.w3.org/Graphics/SVG/1.1/DTD/svg11.dtd">
<svg width="100%" height="100%" viewBox="0 0 4248 2062" version="1.1" xmlns="http://www.w3.org/2000/svg" xmlns:xlink="http://www.w3.org/1999/xlink" xml:space="preserve" xmlns:serif="http://www.serif.com/" style="fill-rule:evenodd;clip-rule:evenodd;stroke-linecap:round;stroke-linejoin:round;stroke-miterlimit:1.5;">
    <g transform="matrix(1,0,0,1,-6424.911682,-877.126468)">
        <path d="M7932,2402C7932,2402 8225.65,2821.29 8777,2655C9309.956,2494.258 9316,1932 9316,1932C9316,1932 9479.078,1916.102 9528,1970C9567.838,2013.89 9482.538,2339.979 9404.852,2449.854C9343.597,2536.489 9241.298,2747.002 8832,2892C8644.374,2958.469 8353.287,2946.896 8149.869,2855.167C7968.854,2773.541 7794.629,2623.454 7792,2566C7788.777,2495.579 7932,2402 7932,2402Z" style="fill:white;stroke:rgb(38,255,0);stroke-opacity:0;stroke-width:8.33px;"/>
        <path d="M6427,2692C6425.045,2692.514 6998.724,2458.675 7275.567,2334.049C7333.894,2307.792 7359.535,2273.952 7379,2256C7413.744,2223.957 7441.094,2169.341 7457.349,2094.94C7470.446,2034.99 7478.577,1891.939 7502.57,1769.081C7525.047,1653.982 7559.038,1558.318 7579,1516C7646.925,1372.007 7727.86,1252.385 7823.946,1161.46C8004.781,990.336 8221.485,910.685 8381,890C8675.333,851.833 8990.833,902.167 9354,1250C9396.131,1290.352 9422.419,1324.2 9470.623,1367.165C9538.234,1427.428 9611.951,1477.495 9710,1476C9810.393,1474.47 10058.37,1401.165 10218.37,1359.832C10370.456,1320.543 10673.937,1226.118 10670,1228C10288.435,1410.418 9351.201,1762.064 8679,1994C7971.833,2238 7177.868,2494.658 6427,2692ZM7735,2175C7765.544,2203.977 8035.846,2121.2 8604,1925C9002.2,1787.49 9256.611,1696.272 9316,1645C9370.11,1598.285 9134.211,1350.918 8972,1251C8834.712,1166.434 8613.028,1070.455 8301,1168C7971.081,1271.138 7857.505,1478.55 7804,1602C7727.186,1779.233 7692.557,2134.734 7735,2175Z" style="fill:white;stroke:rgb(30,255,0);stroke-opacity:0;stroke-width:4.17px;"/>
        <g transform="matrix(1.329966,0,0,1.329966,-2899.885522,-954.912458)">
            <circle cx="8597.5" cy="2154.5" r="445.5" style="fill:white;fill-opacity:0;stroke:white;stroke-opacity:0.94;stroke-width:18.8px;"/>
        </g>
    </g>
</svg>
